<?xml version="1.0" standalone="no"?>
<!DOCTYPE svg PUBLIC "-//W3C//DTD SVG 20010904//EN"
 "http://www.w3.org/TR/2001/REC-SVG-20010904/DTD/svg10.dtd">
<svg version="1.0" xmlns="http://www.w3.org/2000/svg"
 width="900.000000pt" height="900.000000pt" viewBox="0 0 900.000000 900.000000"
 preserveAspectRatio="xMidYMid meet">
<metadata>
Created by potrace 1.11, written by Peter Selinger 2001-2013
</metadata>
<g transform="translate(0.000000,900.000000) scale(0.100000,-0.100000)"
fill="#000000" stroke="none">
<path d="M6750 6949 c-135 -10 -292 -36 -335 -54 -39 -17 -165 -62 -236 -85
-176 -55 -865 -98 -1224 -77 -179 11 -282 -5 -730 -113 -265 -64 -453 -66
-770 -11 -124 22 -382 84 -424 102 -23 9 -154 41 -316 75 -38 8 -117 22 -175
30 -58 9 -130 20 -160 24 -30 5 -134 12 -230 16 -198 8 -245 1 -367 -50 -143
-61 -298 -127 -338 -146 -84 -39 -184 -83 -296 -130 -64 -28 -136 -61 -159
-74 -60 -34 -153 -128 -208 -210 -25 -39 -59 -84 -74 -101 -15 -17 -36 -56
-48 -86 -12 -30 -35 -83 -52 -119 -16 -36 -36 -78 -43 -95 -28 -62 -67 -178
-92 -272 -14 -54 -38 -150 -55 -213 -29 -111 -42 -174 -67 -310 -7 -36 -16
-84 -22 -108 -5 -23 -9 -75 -9 -116 0 -67 5 -83 50 -182 27 -60 54 -134 60
-164 6 -30 15 -64 21 -75 5 -11 18 -75 28 -142 11 -67 27 -136 36 -152 8 -17
15 -35 15 -41 0 -10 34 -103 86 -235 13 -33 32 -98 44 -145 11 -47 24 -92 29
-101 5 -9 17 -56 26 -105 20 -107 59 -202 117 -285 24 -34 54 -78 67 -98 13
-20 27 -38 31 -41 3 -3 15 -21 26 -40 10 -19 24 -42 31 -50 16 -21 67 -167 93
-270 12 -47 25 -92 30 -102 5 -9 17 -54 26 -100 14 -73 48 -172 89 -263 8 -16
21 -59 30 -95 20 -81 54 -132 113 -166 42 -25 56 -27 216 -34 137 -6 181 -11
221 -27 93 -38 185 -47 445 -46 284 2 398 14 495 53 70 28 172 85 205 115 9 8
20 15 23 15 4 0 26 12 48 26 44 27 137 48 264 59 101 9 110 1 126 -111 11 -87
36 -134 98 -185 61 -50 97 -56 206 -31 126 29 200 29 278 -3 57 -22 77 -24
237 -26 173 -2 176 -2 275 31 55 18 105 36 110 40 6 3 33 15 60 25 28 10 57
24 66 31 8 8 20 14 25 14 12 0 128 76 184 120 25 19 56 41 68 48 43 24 185 42
372 48 321 9 471 49 516 136 15 28 14 35 -1 87 -24 76 -40 106 -76 141 -36 34
-69 46 -159 59 -166 24 -195 75 -187 332 5 202 36 326 133 536 13 29 35 77 48
106 13 28 32 72 42 97 9 25 20 50 24 55 11 15 86 195 100 240 7 22 16 45 20
50 8 12 90 258 120 360 30 106 49 237 54 365 2 63 9 127 15 142 10 26 66 69
114 87 20 8 105 60 173 106 112 75 190 147 387 354 111 117 186 151 504 232
183 46 407 114 428 129 6 4 28 13 50 20 38 12 96 38 230 101 103 48 157 66
265 88 142 30 189 57 242 140 49 76 104 151 123 166 24 20 65 82 65 99 0 56
-104 120 -320 197 -30 11 -69 26 -87 34 -17 8 -37 15 -45 15 -7 0 -40 13 -73
28 -33 16 -78 35 -100 42 -22 7 -64 23 -93 36 -29 13 -55 24 -58 24 -3 0 -70
32 -148 70 -79 39 -150 70 -158 70 -8 0 -18 4 -24 10 -35 35 -552 76 -764 59z
m-3373 -3643 c19 -23 24 -37 19 -60 -36 -200 -56 -329 -56 -366 0 -51 24 -155
44 -185 20 -32 46 -121 46 -159 0 -28 -7 -41 -37 -65 -45 -37 -89 -51 -164
-51 -160 0 -348 80 -349 148 0 9 -5 72 -10 140 -9 113 -13 130 -51 210 -32 68
-42 105 -49 172 -13 117 -3 197 25 216 25 17 264 33 443 30 113 -1 114 -2 139
-30z m1309 -571 c41 -77 67 -210 68 -345 1 -121 -12 -163 -56 -186 -41 -21
-66 -12 -127 42 -51 46 -111 144 -111 182 0 27 43 148 81 227 47 99 79 146 98
143 9 -2 30 -30 47 -63z"/>
</g>
</svg>
