<svg version="1.0" xmlns="http://www.w3.org/2000/svg" width="1200" height="1200" viewBox="0 0 900 900"><path d="M675 205.1c-13.5 1-29.2 3.6-33.5 5.4-3.9 1.7-16.5 6.2-23.6 8.5-17.6 5.5-86.5 9.8-122.4 7.7-17.9-1.1-28.2.5-73 11.3-26.5 6.4-45.3 6.6-77 1.1-12.4-2.2-38.2-8.4-42.4-10.2-2.3-.9-15.4-4.1-31.6-7.5-3.8-.8-11.7-2.2-17.5-3-5.8-.9-13-2-16-2.4-3-.5-13.4-1.2-23-1.6-19.8-.8-24.5-.1-36.7 5-14.3 6.1-29.8 12.7-33.8 14.6-8.4 3.9-18.4 8.3-29.6 13-6.4 2.8-13.6 6.1-15.9 7.4-6 3.4-15.3 12.8-20.8 21-2.5 3.9-5.9 8.4-7.4 10.1-1.5 1.7-3.6 5.6-4.8 8.6-1.2 3-3.5 8.3-5.2 11.9-1.6 3.6-3.6 7.8-4.3 9.5-2.8 6.2-6.7 17.8-9.2 27.2-1.4 5.4-3.8 15-5.5 21.3-2.9 11.1-4.2 17.4-6.7 31-.7 3.6-1.6 8.4-2.2 10.8-.5 2.3-.9 7.5-.9 11.6 0 6.7.5 8.3 5 18.2 2.7 6 5.4 13.4 6 16.4.6 3 1.5 6.4 2.1 7.5.5 1.1 1.8 7.5 2.8 14.2 1.1 6.7 2.7 13.6 3.6 15.2.8 1.7 1.5 3.5 1.5 4.1 0 1 3.4 10.3 8.6 23.5 1.3 3.3 3.2 9.8 4.4 14.5 1.1 4.7 2.4 9.2 2.9 10.1.5.9 1.7 5.6 2.6 10.5 2 10.7 5.9 20.2 11.7 28.5 2.4 3.4 5.4 7.8 6.7 9.8 1.3 2 2.7 3.8 3.1 4.1.3.3 1.5 2.1 2.6 4 1 1.9 2.4 4.2 3.1 5 1.6 2.1 6.7 16.7 9.3 27 1.2 4.7 2.5 9.2 3 10.2.5.9 1.7 5.4 2.6 10 1.4 7.3 4.8 17.2 8.9 26.3.8 1.6 2.1 5.9 3 9.5 2 8.1 5.4 13.2 11.3 16.6 4.2 2.5 5.6 2.7 21.6 3.4 13.7.6 18.1 1.1 22.1 2.7 9.3 3.8 18.5 4.7 44.5 4.6 28.4-.2 39.8-1.4 49.5-5.3 7-2.8 17.2-8.5 20.5-11.5.9-.8 2-1.5 2.3-1.5.4 0 2.6-1.2 4.8-2.6 4.4-2.7 13.7-4.8 26.4-5.9 10.1-.9 11-.1 12.6 11.1 1.1 8.7 3.6 13.4 9.8 18.5 6.1 5 9.7 5.6 20.6 3.1 12.6-2.9 20-2.9 27.8.3 5.7 2.2 7.7 2.4 23.7 2.6 17.3.2 17.6.2 27.5-3.1 5.5-1.8 10.5-3.6 11-4 .6-.3 3.3-1.5 6-2.5 2.8-1 5.7-2.4 6.6-3.1.8-.8 2-1.4 2.5-1.4 1.2 0 12.8-7.6 18.4-12 2.5-1.9 5.6-4.1 6.8-4.8 4.3-2.4 18.5-4.2 37.2-4.8 32.1-.9 47.1-4.9 51.6-13.6 1.5-2.8 1.4-3.5-.1-8.7-2.4-7.6-4-10.6-7.6-14.1-3.6-3.4-6.9-4.6-15.9-5.9-16.6-2.4-19.5-7.5-18.7-33.2.5-20.2 3.6-32.6 13.3-53.6 1.3-2.9 3.5-7.7 4.8-10.6 1.3-2.8 3.2-7.2 4.2-9.7.9-2.5 2-5 2.4-5.5 1.1-1.5 8.6-19.5 10-24 .7-2.2 1.6-4.5 2-5 .8-1.2 9-25.8 12-36 3-10.6 4.9-23.7 5.4-36.5.2-6.3.9-12.7 1.5-14.2 1-2.6 6.6-6.9 11.4-8.7 2-.8 10.5-6 17.3-10.6 11.2-7.5 19-14.7 38.7-35.4 11.1-11.7 18.6-15.1 50.4-23.2 18.3-4.6 40.7-11.4 42.8-12.9.6-.4 2.8-1.3 5-2 3.8-1.2 9.6-3.8 23-10.1 10.3-4.8 15.7-6.6 26.5-8.8 14.2-3 18.9-5.7 24.2-14 4.9-7.6 10.4-15.1 12.3-16.6 2.4-2 6.5-8.2 6.5-9.9 0-5.6-10.4-12-32-19.7-3-1.1-6.9-2.6-8.7-3.4-1.7-.8-3.7-1.5-4.5-1.5-.7 0-4-1.3-7.3-2.8-3.3-1.6-7.8-3.5-10-4.2-2.2-.7-6.4-2.3-9.3-3.6-2.9-1.3-5.5-2.4-5.8-2.4-.3 0-7-3.2-14.8-7-7.9-3.9-15-7-15.8-7-.8 0-1.8-.4-2.4-1-3.5-3.5-55.2-7.6-76.4-5.9zM337.7 569.4c1.9 2.3 2.4 3.7 1.9 6-3.6 20-5.6 32.9-5.6 36.6 0 5.1 2.4 15.5 4.4 18.5 2 3.2 4.6 12.1 4.6 15.9 0 2.8-.7 4.1-3.7 6.5-4.5 3.7-8.9 5.1-16.4 5.1-16 0-34.8-8-34.9-14.8 0-.9-.5-7.2-1-14-.9-11.3-1.3-13-5.1-21-3.2-6.8-4.2-10.5-4.9-17.2-1.3-11.7-.3-19.7 2.5-21.6 2.5-1.7 26.4-3.3 44.3-3 11.3.1 11.4.2 13.9 3zm130.9 57.1c4.1 7.7 6.7 21 6.8 34.5.1 12.1-1.2 16.3-5.6 18.6-4.1 2.1-6.6 1.2-12.7-4.2-5.1-4.6-11.1-14.4-11.1-18.2 0-2.7 4.3-14.8 8.1-22.7 4.7-9.9 7.9-14.6 9.8-14.3.9.2 3 3 4.7 6.3z"/></svg>