<?xml version="1.0" encoding="utf-8"?>
<!-- Generator: Adobe Illustrator 16.0.0, SVG Export Plug-In . SVG Version: 6.00 Build 0)  -->
<!DOCTYPE svg PUBLIC "-//W3C//DTD SVG 1.1//EN" "http://www.w3.org/Graphics/SVG/1.1/DTD/svg11.dtd">
<svg version="1.1" id="Layer_1" xmlns="http://www.w3.org/2000/svg" xmlns:xlink="http://www.w3.org/1999/xlink" x="0px" y="0px"
	 width="514.778px" height="145.375px" viewBox="0 0 514.778 145.375" enable-background="new 0 0 514.778 145.375"
	 xml:space="preserve">
<g>
	<g>
		<g>
			<polygon fill="#BCBEC0" points="70.376,0.703 70.376,39.804 91.584,53.938 123.162,35.89 			"/>
			<polygon fill="#0098D1" points="0,106.274 0,145.375 123.162,74.991 91.584,53.938 			"/>
			<polygon fill="#0076A3" points="91.584,53.938 123.162,74.991 123.162,35.89 			"/>
		</g>
	</g>
	<g>
		<path fill="#58595B" d="M157.458,39.183v13.119h22.229v8.084h-22.229v19.673h-8.908V31.11h33.837v8.073H157.458z"/>
		<path fill="#58595B" d="M187.414,39.183v-8.905h9.257v8.905H187.414z M187.696,80.059V44.157h8.769v35.902H187.696z"/>
		<path fill="#58595B" d="M221.727,51.82c-6.069,0-9.254,4.353-9.254,10.152v18.087h-8.7V44.157h7.325l0.757,5.39
			c1.655-4.142,5.941-5.883,10.146-5.883c0.896,0,1.794,0.088,2.695,0.222v8.272C223.734,51.958,222.692,51.82,221.727,51.82z"/>
		<path fill="#58595B" d="M253.897,76.81c-2.905,2.916-7.396,4.146-12.292,4.146c-4.552,0-8.625-1.319-11.597-4.146
			c-2.074-2.002-3.801-4.979-3.801-8.351h8.084c0,1.585,0.826,3.315,1.927,4.214c1.392,1.104,2.969,1.586,5.456,1.586
			c2.902,0,7.316-0.616,7.316-4.559c0-2.067-1.38-3.459-3.587-3.792c-3.177-0.488-6.767-0.693-9.944-1.392
			c-4.896-1.021-8.211-5.04-8.211-9.587c0-3.665,1.519-6.216,3.662-8.084c2.623-2.273,6.418-3.593,10.906-3.593
			c4.281,0,8.622,1.386,11.25,4.214c1.935,2.08,3.171,4.769,3.171,7.386h-8.201c0-1.37-0.632-2.484-1.458-3.382
			c-1.037-1.037-2.9-1.658-4.702-1.658c-1.236,0-2.412,0-3.72,0.554c-1.522,0.627-2.761,1.935-2.761,3.798
			c0,2.556,2.215,3.316,4.142,3.582c3.241,0.422,4.142,0.499,7.663,1.054c5.655,0.893,9.797,4.48,9.797,10.146
			C256.997,72.39,255.761,74.941,253.897,76.81z"/>
		<path fill="#58595B" d="M276.26,80.536c-7.253,0-10.841-4.137-10.841-11.045V51.265h-6.559v-7.108h6.559v-9.11l8.628-2.14v11.25
			h9.044v7.108h-9.044v17.46c0,2.762,1.248,3.948,4.009,3.948c1.791,0,3.244-0.078,5.595-0.35v7.247
			C281.232,80.192,278.815,80.536,276.26,80.536z"/>
		<path fill="#58595B" d="M321.688,75.701c-3.727,3.731-9.465,5.256-15.47,5.256c-5.174,0-10.635-1.386-14.639-5.045
			c-2.905-2.629-5.101-6.765-5.101-11.395h9.104c0,2.417,1.108,4.563,2.562,6.005c2.068,2.073,5.372,2.628,8.217,2.628
			c3.377,0,6.626-0.688,8.483-2.628c1.114-1.165,1.936-2.34,1.936-4.68c0-3.593-2.762-5.251-5.806-5.811
			c-3.311-0.621-7.585-0.754-10.829-1.309c-6.765-1.109-12.437-5.522-12.437-13.679c0-3.854,1.735-7.108,4.286-9.665
			c3.238-3.171,8.633-5.167,14.366-5.167c5.245,0,10.347,1.647,13.668,4.757c2.899,2.767,4.901,6.354,4.974,10.435h-9.115
			c-0.078-1.741-0.977-3.599-2.146-4.835c-1.586-1.664-4.823-2.634-7.446-2.634c-2.778,0-5.949,0.632-7.951,2.7
			c-1.037,1.104-1.652,2.351-1.652,4.142c0,3.177,2.079,4.835,4.968,5.317c3.116,0.477,7.458,0.832,10.63,1.242
			c7.324,1.031,13.468,5.8,13.468,14.15C325.757,70.044,324.099,73.283,321.688,75.701z"/>
		<path fill="#58595B" d="M361.792,64.8h-24.025c-0.066,2.761,0.898,5.378,2.623,7.031c1.247,1.187,2.966,2.212,5.317,2.212
			c2.489,0,4.003-0.482,5.245-1.719c0.76-0.76,1.381-1.725,1.729-3.038h8.268c-0.2,2.146-1.652,4.974-3.021,6.626
			c-3.039,3.587-7.524,5.045-12.088,5.045c-4.901,0-8.489-1.729-11.312-4.424c-3.604-3.449-5.533-8.484-5.533-14.35
			c0-5.745,1.729-10.845,5.185-14.372c2.688-2.767,6.559-4.558,11.449-4.558c5.323,0,10.158,2.151,13.13,6.626
			c2.623,3.942,3.238,8.012,3.105,12.503C361.864,62.382,361.792,64.045,361.792,64.8z M351.019,52.235
			c-1.176-1.242-2.972-2.074-5.445-2.074c-2.628,0-4.773,1.104-6.016,2.761c-1.242,1.586-1.791,3.25-1.857,5.589h15.53
			C353.164,55.823,352.399,53.744,351.019,52.235z"/>
		<path fill="#58595B" d="M385.124,51.82c-6.077,0-9.26,4.353-9.26,10.152v18.087h-8.699V44.157h7.324l0.76,5.39
			c1.646-4.142,5.933-5.883,10.152-5.883c0.893,0,1.791,0.088,2.689,0.222v8.272C387.12,51.958,386.089,51.82,385.124,51.82z"/>
		<path fill="#58595B" d="M413.768,80.059h-9.188l-13.318-35.902h9.11l8.977,25.268l8.495-25.268h8.894L413.768,80.059z"/>
		<path fill="#58595B" d="M431.156,39.183v-8.905h9.248v8.905H431.156z M431.438,80.059V44.157h8.767v35.902H431.438z"/>
		<path fill="#58595B" d="M475.275,75.158c-2.484,3.094-6.837,5.66-12.293,5.66s-10.002-2.622-12.486-5.66
			c-2.7-3.383-3.942-7.874-3.942-13.119c0-5.251,1.242-9.737,3.942-13.125c2.484-3.033,7.03-5.661,12.486-5.661
			s9.809,2.556,12.293,5.661c1.652,2.146,2.623,4.974,2.756,7.807h-8.495c-0.055-1.314-0.482-2.417-1.031-3.321
			c-1.025-1.58-2.894-2.684-5.522-2.684c-2.345,0-4.075,0.97-5.239,2.207c-2.085,2.285-2.423,5.745-2.423,9.116
			c0,3.382,0.338,6.765,2.423,9.038c1.164,1.247,2.895,2.272,5.239,2.272c2.629,0,4.497-1.098,5.522-2.678
			c0.549-0.903,0.977-2.013,1.031-3.321h8.495C477.898,70.178,476.928,73.017,475.275,75.158z"/>
		<path fill="#58595B" d="M514.688,64.8h-24.025c-0.066,2.761,0.898,5.378,2.622,7.031c1.242,1.187,2.967,2.212,5.329,2.212
			c2.462,0,3.997-0.482,5.239-1.719c0.754-0.76,1.392-1.725,1.725-3.038h8.278c-0.205,2.146-1.652,4.974-3.039,6.626
			c-3.032,3.587-7.523,5.045-12.081,5.045c-4.886,0-8.489-1.729-11.312-4.424c-3.588-3.449-5.528-8.484-5.528-14.35
			c0-5.745,1.725-10.845,5.174-14.372c2.694-2.767,6.559-4.558,11.46-4.558c5.323,0,10.164,2.151,13.119,6.626
			c2.623,3.942,3.255,8.012,3.105,12.503C514.754,62.382,514.688,64.045,514.688,64.8z M503.925,52.235
			c-1.181-1.242-2.983-2.074-5.462-2.074c-2.611,0-4.763,1.104-5.999,2.761c-1.253,1.586-1.802,3.25-1.868,5.589h15.53
			C506.06,55.823,505.289,53.744,503.925,52.235z"/>
	</g>
	<g>
		<path fill="#58595B" d="M312.022,124.466l-4.236-9.332h-6.198v9.332h-2.817v-22.423h8.794c2.634,0,4.458,0.731,5.694,1.99
			c1.07,1.143,1.769,2.595,1.769,4.558c0,1.958-0.637,3.283-1.707,4.414c-0.666,0.71-1.613,1.248-2.684,1.586l4.491,9.875H312.022z
			 M307.564,104.632h-5.977v7.874h5.977c2.667,0,4.553-1.075,4.553-3.915C312.117,105.748,310.231,104.632,307.564,104.632z"/>
		<path fill="#58595B" d="M321.92,124.466v-22.423h14.981v2.589h-12.17v6.832h10.679v2.655h-10.679v7.735h12.17v2.611H321.92z"/>
		<path fill="#58595B" d="M357.162,122.62c-1.553,1.52-3.948,2.251-6.349,2.251c-2.723,0-4.907-0.754-6.427-2.151
			c-1.425-1.325-2.4-3.249-2.4-5.367h2.938c0,1.325,0.665,2.646,1.586,3.526c1.004,0.977,2.717,1.403,4.303,1.403
			c1.702,0,3.16-0.36,4.17-1.303c0.688-0.633,1.136-1.42,1.136-2.629c0-1.729-1.103-3.183-3.77-3.604l-3.538-0.527
			c-3.354-0.504-5.972-2.378-5.972-5.949c0-1.675,0.754-3.282,1.957-4.425c1.559-1.452,3.549-2.218,5.884-2.218
			c2.185,0,4.336,0.732,5.821,2.163c1.358,1.297,2.085,2.905,2.141,4.801h-2.938c-0.062-1.119-0.466-2.084-1.104-2.816
			c-0.859-0.981-2.213-1.547-3.948-1.547c-1.607,0-3.005,0.438-3.986,1.547c-0.577,0.666-0.909,1.42-0.909,2.429
			c0,2.029,1.669,2.938,3.343,3.172c1.265,0.155,2.501,0.365,3.732,0.565c3.726,0.532,6.227,2.806,6.227,6.343
			C359.059,120.158,358.26,121.549,357.162,122.62z"/>
		<path fill="#58595B" d="M366.017,124.466v-22.423h2.872v22.423H366.017z"/>
		<path fill="#58595B" d="M391.123,122.22c-1.591,1.509-3.715,2.246-5.889,2.246h-7.807v-22.423h7.807
			c2.174,0,4.298,0.765,5.889,2.279c2.462,2.34,2.872,5.688,2.872,8.915C393.995,116.459,393.552,119.88,391.123,122.22z
			 M389.222,106.18c-1.048-1.048-2.528-1.548-3.987-1.548h-4.984v17.223h4.984c1.459,0,2.939-0.494,3.987-1.542
			c1.769-1.796,1.924-4.674,1.924-7.075C391.146,110.832,390.99,108.026,389.222,106.18z"/>
		<path fill="#58595B" d="M401.037,124.466v-22.423h14.999v2.589h-12.171v6.832h10.679v2.655h-10.679v7.735h12.171v2.611H401.037z"
			/>
		<path fill="#58595B" d="M436.734,124.466l-11.012-18.025v18.025h-2.712v-22.423h3.161l11.006,18.081v-18.081h2.711v22.423H436.734
			z"/>
		<path fill="#58595B" d="M455.203,104.667v19.8h-2.85v-19.8h-6.676v-2.623h16.185v2.623H455.203z"/>
		<path fill="#58595B" d="M467.646,124.466v-22.423h2.889v22.423H467.646z"/>
		<path fill="#58595B" d="M492.375,124.466l-1.83-5.317h-9.747l-1.797,5.317h-2.855l7.924-22.423h3.282l7.929,22.423H492.375z
			 M485.633,104.855l-3.937,11.638h7.929L485.633,104.855z"/>
		<path fill="#58595B" d="M500.908,124.466v-22.423h2.812v19.789h10.784v2.634H500.908z"/>
	</g>
</g>
</svg>
