<svg xmlns="http://www.w3.org/2000/svg" width="514.778" height="145.375"><path fill="#BCBEC0" d="M70.376.703v39.101l21.208 14.134 31.578-18.048z"/><path fill="#0098D1" d="M0 106.274v39.101l123.162-70.384-31.578-21.053z"/><path fill="#0076A3" d="M91.584 53.938l31.578 21.053V35.89z"/><path d="M157.458 39.183v13.119h22.229v8.084h-22.229v19.673h-8.908V31.11h33.837v8.073h-24.929zm29.956 0v-8.905h9.257v8.905h-9.257zm.282 40.876V44.157h8.769v35.902h-8.769zm34.031-28.239c-6.069 0-9.254 4.353-9.254 10.152v18.087h-8.7V44.157h7.325l.757 5.39c1.655-4.142 5.941-5.883 10.146-5.883.896 0 1.794.088 2.695.222v8.272c-.962-.2-2.004-.338-2.969-.338zm32.17 24.99c-2.905 2.916-7.396 4.146-12.292 4.146-4.552 0-8.625-1.319-11.597-4.146-2.074-2.002-3.801-4.979-3.801-8.351h8.084c0 1.585.826 3.315 1.927 4.214 1.392 1.104 2.969 1.586 5.456 1.586 2.902 0 7.316-.616 7.316-4.559 0-2.067-1.38-3.459-3.587-3.792-3.177-.488-6.767-.693-9.944-1.392-4.896-1.021-8.211-5.04-8.211-9.587 0-3.665 1.519-6.216 3.662-8.084 2.623-2.273 6.418-3.593 10.906-3.593 4.281 0 8.622 1.386 11.25 4.214 1.935 2.08 3.171 4.769 3.171 7.386h-8.201c0-1.37-.632-2.484-1.458-3.382-1.037-1.037-2.9-1.658-4.702-1.658-1.236 0-2.412 0-3.72.554-1.522.627-2.761 1.935-2.761 3.798 0 2.556 2.215 3.316 4.142 3.582 3.241.422 4.142.499 7.663 1.054 5.655.893 9.797 4.48 9.797 10.146 0 3.444-1.236 5.995-3.1 7.864zm22.363 3.726c-7.253 0-10.841-4.137-10.841-11.045V51.265h-6.559v-7.108h6.559v-9.11l8.628-2.14v11.25h9.044v7.108h-9.044v17.46c0 2.762 1.248 3.948 4.009 3.948 1.791 0 3.244-.078 5.595-.35v7.247c-2.419.622-4.836.966-7.391.966zm45.428-4.835c-3.727 3.731-9.465 5.256-15.47 5.256-5.174 0-10.635-1.386-14.639-5.045-2.905-2.629-5.101-6.765-5.101-11.395h9.104c0 2.417 1.108 4.563 2.562 6.005 2.068 2.073 5.372 2.628 8.217 2.628 3.377 0 6.626-.688 8.483-2.628 1.114-1.165 1.936-2.34 1.936-4.68 0-3.593-2.762-5.251-5.806-5.811-3.311-.621-7.585-.754-10.829-1.309-6.765-1.109-12.437-5.522-12.437-13.679 0-3.854 1.735-7.108 4.286-9.665 3.238-3.171 8.633-5.167 14.366-5.167 5.245 0 10.347 1.647 13.668 4.757 2.899 2.767 4.901 6.354 4.974 10.435h-9.115c-.078-1.741-.977-3.599-2.146-4.835-1.586-1.664-4.823-2.634-7.446-2.634-2.778 0-5.949.632-7.951 2.7-1.037 1.104-1.652 2.351-1.652 4.142 0 3.177 2.079 4.835 4.968 5.317 3.116.477 7.458.832 10.63 1.242 7.324 1.031 13.468 5.8 13.468 14.15-.001 4.559-1.659 7.798-4.07 10.216zM361.792 64.8h-24.025c-.066 2.761.898 5.378 2.623 7.031 1.247 1.187 2.966 2.212 5.317 2.212 2.489 0 4.003-.482 5.245-1.719.76-.76 1.381-1.725 1.729-3.038h8.268c-.2 2.146-1.652 4.974-3.021 6.626-3.039 3.587-7.524 5.045-12.088 5.045-4.901 0-8.489-1.729-11.312-4.424-3.604-3.449-5.533-8.484-5.533-14.35 0-5.745 1.729-10.845 5.185-14.372 2.688-2.767 6.559-4.558 11.449-4.558 5.323 0 10.158 2.151 13.13 6.626 2.623 3.942 3.238 8.012 3.105 12.503 0 0-.072 1.663-.072 2.418zm-10.773-12.565c-1.176-1.242-2.972-2.074-5.445-2.074-2.628 0-4.773 1.104-6.016 2.761-1.242 1.586-1.791 3.25-1.857 5.589h15.53c-.067-2.688-.832-4.767-2.212-6.276zm34.105-.415c-6.077 0-9.26 4.353-9.26 10.152v18.087h-8.699V44.157h7.324l.76 5.39c1.646-4.142 5.933-5.883 10.152-5.883.893 0 1.791.088 2.689.222v8.272c-.97-.2-2.001-.338-2.966-.338zm28.644 28.239h-9.188l-13.318-35.902h9.11l8.977 25.268 8.495-25.268h8.894l-12.97 35.902zm17.388-40.876v-8.905h9.248v8.905h-9.248zm.282 40.876V44.157h8.767v35.902h-8.767zm43.837-4.901c-2.484 3.094-6.837 5.66-12.293 5.66s-10.002-2.622-12.486-5.66c-2.7-3.383-3.942-7.874-3.942-13.119 0-5.251 1.242-9.737 3.942-13.125 2.484-3.033 7.03-5.661 12.486-5.661s9.809 2.556 12.293 5.661c1.652 2.146 2.623 4.974 2.756 7.807h-8.495c-.055-1.314-.482-2.417-1.031-3.321-1.025-1.58-2.894-2.684-5.522-2.684-2.345 0-4.075.97-5.239 2.207-2.085 2.285-2.423 5.745-2.423 9.116 0 3.382.338 6.765 2.423 9.038 1.164 1.247 2.895 2.272 5.239 2.272 2.629 0 4.497-1.098 5.522-2.678.549-.903.977-2.013 1.031-3.321h8.495c-.133 2.828-1.103 5.667-2.756 7.808zM514.688 64.8h-24.025c-.066 2.761.898 5.378 2.622 7.031 1.242 1.187 2.967 2.212 5.329 2.212 2.462 0 3.997-.482 5.239-1.719a6.464 6.464 0 001.725-3.038h8.278c-.205 2.146-1.652 4.974-3.039 6.626-3.032 3.587-7.523 5.045-12.081 5.045-4.886 0-8.489-1.729-11.312-4.424-3.588-3.449-5.528-8.484-5.528-14.35 0-5.745 1.725-10.845 5.174-14.372 2.694-2.767 6.559-4.558 11.46-4.558 5.323 0 10.164 2.151 13.119 6.626 2.623 3.942 3.255 8.012 3.105 12.503 0 0-.066 1.663-.066 2.418zm-10.763-12.565c-1.181-1.242-2.983-2.074-5.462-2.074-2.611 0-4.763 1.104-5.999 2.761-1.253 1.586-1.802 3.25-1.868 5.589h15.53c-.066-2.688-.837-4.767-2.201-6.276zm-191.903 72.231l-4.236-9.332h-6.198v9.332h-2.817v-22.423h8.794c2.634 0 4.458.731 5.694 1.99 1.07 1.143 1.769 2.595 1.769 4.558 0 1.958-.637 3.283-1.707 4.414-.666.71-1.613 1.248-2.684 1.586l4.491 9.875h-3.106zm-4.458-19.834h-5.977v7.874h5.977c2.667 0 4.553-1.075 4.553-3.915 0-2.843-1.886-3.959-4.553-3.959zm14.356 19.834v-22.423h14.981v2.589h-12.17v6.832h10.679v2.655h-10.679v7.735h12.17v2.611H321.92zm35.242-1.846c-1.553 1.52-3.948 2.251-6.349 2.251-2.723 0-4.907-.754-6.427-2.151-1.425-1.325-2.4-3.249-2.4-5.367h2.938c0 1.325.665 2.646 1.586 3.526 1.004.977 2.717 1.403 4.303 1.403 1.702 0 3.16-.36 4.17-1.303.688-.633 1.136-1.42 1.136-2.629 0-1.729-1.103-3.183-3.77-3.604l-3.538-.527c-3.354-.504-5.972-2.378-5.972-5.949 0-1.675.754-3.282 1.957-4.425 1.559-1.452 3.549-2.218 5.884-2.218 2.185 0 4.336.732 5.821 2.163 1.358 1.297 2.085 2.905 2.141 4.801h-2.938c-.062-1.119-.466-2.084-1.104-2.816-.859-.981-2.213-1.547-3.948-1.547-1.607 0-3.005.438-3.986 1.547-.577.666-.909 1.42-.909 2.429 0 2.029 1.669 2.938 3.343 3.172 1.265.155 2.501.365 3.732.565 3.726.532 6.227 2.806 6.227 6.343 0 1.874-.799 3.265-1.897 4.336zm8.855 1.846v-22.423h2.872v22.423h-2.872zm25.106-2.246c-1.591 1.509-3.715 2.246-5.889 2.246h-7.807v-22.423h7.807c2.174 0 4.298.765 5.889 2.279 2.462 2.34 2.872 5.688 2.872 8.915 0 3.222-.443 6.643-2.872 8.983zm-1.901-16.04c-1.048-1.048-2.528-1.548-3.987-1.548h-4.984v17.223h4.984c1.459 0 2.939-.494 3.987-1.542 1.769-1.796 1.924-4.674 1.924-7.075 0-2.406-.156-5.212-1.924-7.058zm11.815 18.286v-22.423h14.999v2.589h-12.171v6.832h10.679v2.655h-10.679v7.735h12.171v2.611h-14.999zm35.697 0l-11.012-18.025v18.025h-2.712v-22.423h3.161l11.006 18.081v-18.081h2.711v22.423h-3.154zm18.469-19.799v19.8h-2.85v-19.8h-6.676v-2.623h16.185v2.623h-6.659zm12.443 19.799v-22.423h2.889v22.423h-2.889zm24.729 0l-1.83-5.317h-9.747l-1.797 5.317h-2.855l7.924-22.423h3.282l7.929 22.423h-2.906zm-6.742-19.611l-3.937 11.638h7.929l-3.992-11.638zm15.275 19.611v-22.423h2.812v19.789h10.784v2.634h-13.596z" fill="#58595B"/></svg>